# xmcd CD database file
#
# Track frame offsets:
#	150
#	22967
#	43112
#	66265
#	82520
#	104420
#	120710
#	144600
#	167857
#	185765
#	198635
#
# Disc length: 3045 seconds
#
# Revision: 4
# Processed by: cddbd v1.5.2PL0 Copyright (c) Steve Scherf et al.
# Submitted via: CDex 1.51
#
DISCID=990be30b
DTITLE=The Robert Cray Band - Shame and A Sin
DYEAR=1993
DGENRE=Blues
TTITLE0=1040 Blues
TTITLE1=Some Pain, Some Shame
TTITLE2=I Shiver
TTITLE3=You're Gonna Need Me
TTITLE4=Don't Break This Ring
TTITLE5=Stay Go
TTITLE6=Leave Well Enough Alone
TTITLE7=Passing By
TTITLE8=I'm Just Lucky That Way
TTITLE9=Well I Lied
TTITLE10=Up And Down
EXTD=YEAR: 1993
EXTT0=
EXTT1=
EXTT2=
EXTT3=
EXTT4=
EXTT5=
EXTT6=
EXTT7=
EXTT8=
EXTT9=
EXTT10=
PLAYORDER=
